<?xml version="1.0" standalone="no"?>
<!DOCTYPE svg PUBLIC "-//W3C//DTD SVG 20010904//EN"
 "http://www.w3.org/TR/2001/REC-SVG-20010904/DTD/svg10.dtd">
<svg version="1.0" xmlns="http://www.w3.org/2000/svg"
 width="512.000000pt" height="512.000000pt" viewBox="0 0 512.000000 512.000000"
 preserveAspectRatio="xMidYMid meet">
<metadata>
Created by potrace 1.14, written by Peter Selinger 2001-2017
</metadata>
<g transform="translate(0.000000,512.000000) scale(0.100000,-0.100000)"
fill="#000000" stroke="none">
<path d="M1615 4919 c-170 -110 -441 -286 -601 -391 l-292 -192 -170 -285
c-94 -158 -256 -430 -361 -606 l-191 -321 114 -824 114 -825 219 -216 c120
-119 416 -410 657 -646 l440 -430 825 -91 825 -92 231 147 c191 122 510 329
898 583 l68 45 365 607 364 607 -70 523 c-39 288 -88 643 -109 790 l-38 266
-89 109 c-240 294 -495 571 -761 825 -133 127 -388 352 -469 414 -29 23 -75
29 -839 114 -445 50 -811 90 -814 90 -3 0 -145 -91 -316 -201z m1104 -188
c679 -76 714 -81 744 -104 252 -193 754 -699 1064 -1072 l91 -111 32 -224 c17
-124 60 -436 95 -695 l64 -470 -317 -530 -317 -530 -185 -123 c-102 -68 -338
-222 -526 -343 l-341 -219 -723 81 -724 80 -460 452 c-254 249 -516 506 -583
572 l-123 120 -99 723 -100 723 317 531 317 532 155 102 c254 168 895 583 901
583 3 1 326 -35 718 -78z"/>
</g>
</svg>
