<?xml version="1.0" standalone="no"?>
<!DOCTYPE svg PUBLIC "-//W3C//DTD SVG 20010904//EN"
 "http://www.w3.org/TR/2001/REC-SVG-20010904/DTD/svg10.dtd">
<svg version="1.0" xmlns="http://www.w3.org/2000/svg"
 width="512.000000pt" height="512.000000pt" viewBox="0 0 512.000000 512.000000"
 preserveAspectRatio="xMidYMid meet">
<metadata>
Created by potrace 1.14, written by Peter Selinger 2001-2017
</metadata>
<g transform="translate(0.000000,512.000000) scale(0.100000,-0.100000)"
fill="#000000" stroke="none">
<path d="M1615 4920 c-170 -110 -441 -287 -601 -392 l-292 -192 -170 -285
c-94 -158 -256 -430 -361 -606 l-191 -320 114 -825 114 -824 209 -206 c114
-113 411 -403 658 -646 l450 -440 795 -89 c437 -48 811 -89 830 -89 29 -1 95
38 410 241 206 133 473 306 593 385 l218 144 364 608 365 607 -80 587 c-44
323 -93 678 -109 789 l-29 203 -88 107 c-240 294 -496 571 -761 825 -132 126
-388 352 -468 414 -28 21 -80 28 -805 109 -426 47 -793 88 -815 90 -38 5 -55
-4 -350 -195z m1100 -190 c678 -75 720 -81 749 -104 97 -74 328 -287 517 -475
213 -214 368 -383 545 -596 l92 -110 46 -330 c25 -182 68 -494 95 -695 l49
-365 -321 -535 -322 -535 -265 -173 c-146 -95 -380 -247 -522 -337 l-256 -165
-711 80 c-392 44 -716 80 -720 80 -9 0 -1173 1136 -1178 1149 -2 3 -47 329
-102 724 l-99 719 316 531 317 531 155 102 c85 56 322 211 525 343 204 132
370 240 371 240 0 1 324 -35 719 -79z"/>
</g>
</svg>
